<mxfile host="app.diagrams.net" modified="2023-11-28T00:19:49.895Z" agent="Mozilla/5.0 (Windows NT 10.0; Win64; x64) AppleWebKit/537.36 (KHTML, like Gecko) Chrome/119.0.0.0 Safari/537.36" etag="MMG5cpULRdab11KdV-CX" version="21.7.2" type="device">
  <diagram name="PÃ¡gina-1" id="ZEopxDan8oYlo_VNqvBY">
    <mxGraphModel dx="1318" dy="541" grid="1" gridSize="10" guides="1" tooltips="1" connect="1" arrows="1" fold="1" page="1" pageScale="1" pageWidth="827" pageHeight="1169" math="0" shadow="0">
      <root>
        <mxCell id="0" />
        <mxCell id="1" parent="0" />
        <mxCell id="Nmk97KxZYh9kjXZwM0md-26" value="" style="rounded=0;whiteSpace=wrap;html=1;" vertex="1" parent="1">
          <mxGeometry x="280" y="130" width="720" height="370" as="geometry" />
        </mxCell>
        <mxCell id="Nmk97KxZYh9kjXZwM0md-1" value="Food" style="swimlane;fontStyle=0;childLayout=stackLayout;horizontal=1;startSize=26;fillColor=none;horizontalStack=0;resizeParent=1;resizeParentMax=0;resizeLast=0;collapsible=1;marginBottom=0;whiteSpace=wrap;html=1;" vertex="1" parent="1">
          <mxGeometry x="320" y="190" width="140" height="100" as="geometry" />
        </mxCell>
        <mxCell id="Nmk97KxZYh9kjXZwM0md-2" value="&lt;div&gt;food_id (PK)&lt;/div&gt;&lt;div&gt;common_name&lt;/div&gt;&lt;div&gt;scientific_name&lt;/div&gt;&lt;div&gt;description&lt;/div&gt;" style="text;strokeColor=none;fillColor=none;align=left;verticalAlign=top;spacingLeft=4;spacingRight=4;overflow=hidden;rotatable=0;points=[[0,0.5],[1,0.5]];portConstraint=eastwest;whiteSpace=wrap;html=1;" vertex="1" parent="Nmk97KxZYh9kjXZwM0md-1">
          <mxGeometry y="26" width="140" height="74" as="geometry" />
        </mxCell>
        <mxCell id="Nmk97KxZYh9kjXZwM0md-6" value="Content" style="swimlane;fontStyle=1;align=center;verticalAlign=top;childLayout=stackLayout;horizontal=1;startSize=26;horizontalStack=0;resizeParent=1;resizeParentMax=0;resizeLast=0;collapsible=1;marginBottom=0;whiteSpace=wrap;html=1;" vertex="1" parent="1">
          <mxGeometry x="560" y="187" width="160" height="106" as="geometry" />
        </mxCell>
        <mxCell id="Nmk97KxZYh9kjXZwM0md-9" value="&lt;div&gt;content_id (PK)&lt;/div&gt;&lt;div&gt;food_id (FK)&lt;/div&gt;&lt;div&gt;compound_id (FK)&lt;/div&gt;&lt;div&gt;nutrient_id (FK)&lt;/div&gt;" style="text;strokeColor=none;fillColor=none;align=left;verticalAlign=top;spacingLeft=4;spacingRight=4;overflow=hidden;rotatable=0;points=[[0,0.5],[1,0.5]];portConstraint=eastwest;whiteSpace=wrap;html=1;" vertex="1" parent="Nmk97KxZYh9kjXZwM0md-6">
          <mxGeometry y="26" width="160" height="80" as="geometry" />
        </mxCell>
        <mxCell id="Nmk97KxZYh9kjXZwM0md-10" value="Compound" style="swimlane;fontStyle=1;align=center;verticalAlign=top;childLayout=stackLayout;horizontal=1;startSize=26;horizontalStack=0;resizeParent=1;resizeParentMax=0;resizeLast=0;collapsible=1;marginBottom=0;whiteSpace=wrap;html=1;" vertex="1" parent="1">
          <mxGeometry x="810" y="187" width="160" height="106" as="geometry" />
        </mxCell>
        <mxCell id="Nmk97KxZYh9kjXZwM0md-11" value="&lt;div&gt;compound_id (PK)&lt;/div&gt;&lt;div&gt;name&lt;/div&gt;&lt;div&gt;description&lt;/div&gt;&lt;div&gt;status&lt;/div&gt;" style="text;strokeColor=none;fillColor=none;align=left;verticalAlign=top;spacingLeft=4;spacingRight=4;overflow=hidden;rotatable=0;points=[[0,0.5],[1,0.5]];portConstraint=eastwest;whiteSpace=wrap;html=1;" vertex="1" parent="Nmk97KxZYh9kjXZwM0md-10">
          <mxGeometry y="26" width="160" height="80" as="geometry" />
        </mxCell>
        <mxCell id="Nmk97KxZYh9kjXZwM0md-18" style="edgeStyle=orthogonalEdgeStyle;rounded=0;orthogonalLoop=1;jettySize=auto;html=1;exitX=0.5;exitY=0;exitDx=0;exitDy=0;entryX=0.503;entryY=1.013;entryDx=0;entryDy=0;entryPerimeter=0;" edge="1" parent="1" source="Nmk97KxZYh9kjXZwM0md-12" target="Nmk97KxZYh9kjXZwM0md-9">
          <mxGeometry relative="1" as="geometry" />
        </mxCell>
        <mxCell id="Nmk97KxZYh9kjXZwM0md-24" value="1" style="edgeLabel;html=1;align=center;verticalAlign=middle;resizable=0;points=[];" vertex="1" connectable="0" parent="Nmk97KxZYh9kjXZwM0md-18">
          <mxGeometry x="-0.8052" relative="1" as="geometry">
            <mxPoint x="10" y="-4" as="offset" />
          </mxGeometry>
        </mxCell>
        <mxCell id="Nmk97KxZYh9kjXZwM0md-25" value="*" style="edgeLabel;html=1;align=center;verticalAlign=middle;resizable=0;points=[];" vertex="1" connectable="0" parent="Nmk97KxZYh9kjXZwM0md-18">
          <mxGeometry x="0.5803" y="1" relative="1" as="geometry">
            <mxPoint x="11" y="4" as="offset" />
          </mxGeometry>
        </mxCell>
        <mxCell id="Nmk97KxZYh9kjXZwM0md-12" value="Nutrient" style="swimlane;fontStyle=1;align=center;verticalAlign=top;childLayout=stackLayout;horizontal=1;startSize=26;horizontalStack=0;resizeParent=1;resizeParentMax=0;resizeLast=0;collapsible=1;marginBottom=0;whiteSpace=wrap;html=1;" vertex="1" parent="1">
          <mxGeometry x="560" y="350" width="160" height="106" as="geometry" />
        </mxCell>
        <mxCell id="Nmk97KxZYh9kjXZwM0md-13" value="&lt;div&gt;nutrient_id (PK)&lt;/div&gt;&lt;div&gt;name&lt;/div&gt;&lt;div&gt;description&lt;/div&gt;" style="text;strokeColor=none;fillColor=none;align=left;verticalAlign=top;spacingLeft=4;spacingRight=4;overflow=hidden;rotatable=0;points=[[0,0.5],[1,0.5]];portConstraint=eastwest;whiteSpace=wrap;html=1;" vertex="1" parent="Nmk97KxZYh9kjXZwM0md-12">
          <mxGeometry y="26" width="160" height="80" as="geometry" />
        </mxCell>
        <mxCell id="Nmk97KxZYh9kjXZwM0md-14" style="edgeStyle=orthogonalEdgeStyle;rounded=0;orthogonalLoop=1;jettySize=auto;html=1;exitX=1;exitY=0.5;exitDx=0;exitDy=0;entryX=0;entryY=0.5;entryDx=0;entryDy=0;" edge="1" parent="1" source="Nmk97KxZYh9kjXZwM0md-2" target="Nmk97KxZYh9kjXZwM0md-9">
          <mxGeometry relative="1" as="geometry" />
        </mxCell>
        <mxCell id="Nmk97KxZYh9kjXZwM0md-20" value="1" style="edgeLabel;html=1;align=center;verticalAlign=middle;resizable=0;points=[];" vertex="1" connectable="0" parent="Nmk97KxZYh9kjXZwM0md-14">
          <mxGeometry x="-0.5192" relative="1" as="geometry">
            <mxPoint x="-14" y="-10" as="offset" />
          </mxGeometry>
        </mxCell>
        <mxCell id="Nmk97KxZYh9kjXZwM0md-21" value="*" style="edgeLabel;html=1;align=center;verticalAlign=middle;resizable=0;points=[];" vertex="1" connectable="0" parent="Nmk97KxZYh9kjXZwM0md-14">
          <mxGeometry x="0.6808" relative="1" as="geometry">
            <mxPoint y="-8" as="offset" />
          </mxGeometry>
        </mxCell>
        <mxCell id="Nmk97KxZYh9kjXZwM0md-19" style="edgeStyle=orthogonalEdgeStyle;rounded=0;orthogonalLoop=1;jettySize=auto;html=1;entryX=1;entryY=0.5;entryDx=0;entryDy=0;" edge="1" parent="1" source="Nmk97KxZYh9kjXZwM0md-11" target="Nmk97KxZYh9kjXZwM0md-9">
          <mxGeometry relative="1" as="geometry" />
        </mxCell>
        <mxCell id="Nmk97KxZYh9kjXZwM0md-22" value="1" style="edgeLabel;html=1;align=center;verticalAlign=middle;resizable=0;points=[];" vertex="1" connectable="0" parent="Nmk97KxZYh9kjXZwM0md-19">
          <mxGeometry x="-0.8974" relative="1" as="geometry">
            <mxPoint y="-8" as="offset" />
          </mxGeometry>
        </mxCell>
        <mxCell id="Nmk97KxZYh9kjXZwM0md-23" value="*" style="edgeLabel;html=1;align=center;verticalAlign=middle;resizable=0;points=[];" vertex="1" connectable="0" parent="Nmk97KxZYh9kjXZwM0md-19">
          <mxGeometry x="0.7094" y="-1" relative="1" as="geometry">
            <mxPoint x="3" y="-7" as="offset" />
          </mxGeometry>
        </mxCell>
      </root>
    </mxGraphModel>
  </diagram>
</mxfile>
